# xmcd CD database file
#
# Track frame offsets:
#	150
#	13817
#	26342
#	39940
#	52542
#	64967
#	79940
#	92242
#	103657
#	115102
#	126195
#
# Disc length: 1899 seconds
#
# Revision: 2
# Processed by: cddbd v1.5.1PL2 Copyright (c) Steve Scherf et al.
# Submitted via: CDex 1.51
#
DISCID=8307690b
DTITLE=Waylon Jennings - Dreaming My Dreams
DYEAR=1975
DGENRE=Country
TTITLE0=Are You Sure Hank Done It This Way
TTITLE1=Waymore's Blues
TTITLE2=I Recall A Gypsy Woman
TTITLE3=High Time (You Quit Your Lowdown Ways)
TTITLE4=I've Been A Long Time Leaving (But I'll Be A Long Time Gone)
TTITLE5=Let's All Help The Cowboys (Sing The Blues)
TTITLE6=The Door Is Always Open
TTITLE7=Let's Turn Back The Years
TTITLE8=She's Looking Good
TTITLE9=Dreaming My Dreams With You
TTITLE10=Bob Wills Is Still The King
EXTD=YEAR: 1975
EXTT0=
EXTT1=
EXTT2=
EXTT3=
EXTT4=
EXTT5=
EXTT6=
EXTT7=
EXTT8=
EXTT9=
EXTT10=
PLAYORDER=
